<svg id="visual" viewBox="0 0 900 600" width="900" height="600" xmlns="http://www.w3.org/2000/svg" xmlns:xlink="http://www.w3.org/1999/xlink" version="1.1"><path d="M0 426L15 431.3C30 436.7 60 447.3 90 447.5C120 447.7 150 437.3 180 436.8C210 436.3 240 445.7 270 445.2C300 444.7 330 434.3 360 425.8C390 417.3 420 410.7 450 414.8C480 419 510 434 540 441.3C570 448.7 600 448.3 630 447.7C660 447 690 446 720 445.2C750 444.3 780 443.7 810 443.3C840 443 870 443 885 443L900 443L900 601L885 601C870 601 840 601 810 601C780 601 750 601 720 601C690 601 660 601 630 601C600 601 570 601 540 601C510 601 480 601 450 601C420 601 390 601 360 601C330 601 300 601 270 601C240 601 210 601 180 601C150 601 120 601 90 601C60 601 30 601 15 601L0 601Z" fill="#a4958e"></path><path d="M0 486L15 482.5C30 479 60 472 90 471.3C120 470.7 150 476.3 180 478C210 479.7 240 477.3 270 472.7C300 468 330 461 360 457.7C390 454.3 420 454.7 450 456.2C480 457.7 510 460.3 540 464.5C570 468.7 600 474.3 630 470.5C660 466.7 690 453.3 720 450.5C750 447.7 780 455.3 810 458.7C840 462 870 461 885 460.5L900 460L900 601L885 601C870 601 840 601 810 601C780 601 750 601 720 601C690 601 660 601 630 601C600 601 570 601 540 601C510 601 480 601 450 601C420 601 390 601 360 601C330 601 300 601 270 601C240 601 210 601 180 601C150 601 120 601 90 601C60 601 30 601 15 601L0 601Z" fill="#93827a"></path><path d="M0 480L15 484.2C30 488.3 60 496.7 90 499.7C120 502.7 150 500.3 180 501.5C210 502.7 240 507.3 270 504.2C300 501 330 490 360 490.5C390 491 420 503 450 505.7C480 508.3 510 501.7 540 497.5C570 493.3 600 491.7 630 490.3C660 489 690 488 720 490C750 492 780 497 810 499C840 501 870 500 885 499.5L900 499L900 601L885 601C870 601 840 601 810 601C780 601 750 601 720 601C690 601 660 601 630 601C600 601 570 601 540 601C510 601 480 601 450 601C420 601 390 601 360 601C330 601 300 601 270 601C240 601 210 601 180 601C150 601 120 601 90 601C60 601 30 601 15 601L0 601Z" fill="#826f66"></path><path d="M0 531L15 532C30 533 60 535 90 534.7C120 534.3 150 531.7 180 531.2C210 530.7 240 532.3 270 533.5C300 534.7 330 535.3 360 534.7C390 534 420 532 450 527.3C480 522.7 510 515.3 540 513.8C570 512.3 600 516.7 630 519.7C660 522.7 690 524.3 720 523.3C750 522.3 780 518.7 810 516C840 513.3 870 511.7 885 510.8L900 510L900 601L885 601C870 601 840 601 810 601C780 601 750 601 720 601C690 601 660 601 630 601C600 601 570 601 540 601C510 601 480 601 450 601C420 601 390 601 360 601C330 601 300 601 270 601C240 601 210 601 180 601C150 601 120 601 90 601C60 601 30 601 15 601L0 601Z" fill="#716058"></path><path d="M0 563L15 561C30 559 60 555 90 553.7C120 552.3 150 553.7 180 554C210 554.3 240 553.7 270 553.3C300 553 330 553 360 554.3C390 555.7 420 558.3 450 561.2C480 564 510 567 540 565.8C570 564.7 600 559.3 630 560C660 560.7 690 567.3 720 568.8C750 570.3 780 566.7 810 565.7C840 564.7 870 566.3 885 567.2L900 568L900 601L885 601C870 601 840 601 810 601C780 601 750 601 720 601C690 601 660 601 630 601C600 601 570 601 540 601C510 601 480 601 450 601C420 601 390 601 360 601C330 601 300 601 270 601C240 601 210 601 180 601C150 601 120 601 90 601C60 601 30 601 15 601L0 601Z" fill="#60514b"></path></svg>