<svg id="visual" viewBox="0 0 900 600" width="900" height="600" xmlns="http://www.w3.org/2000/svg" xmlns:xlink="http://www.w3.org/1999/xlink" version="1.1"><path d="M0 356L16.7 367C33.3 378 66.7 400 100 398.5C133.3 397 166.7 372 200 371.3C233.3 370.7 266.7 394.3 300 395.3C333.3 396.3 366.7 374.7 400 370.8C433.3 367 466.7 381 500 392.5C533.3 404 566.7 413 600 408.3C633.3 403.7 666.7 385.3 700 374.7C733.3 364 766.7 361 800 367.3C833.3 373.7 866.7 389.3 883.3 397.2L900 405L900 601L883.3 601C866.7 601 833.3 601 800 601C766.7 601 733.3 601 700 601C666.7 601 633.3 601 600 601C566.7 601 533.3 601 500 601C466.7 601 433.3 601 400 601C366.7 601 333.3 601 300 601C266.7 601 233.3 601 200 601C166.7 601 133.3 601 100 601C66.7 601 33.3 601 16.7 601L0 601Z" fill="#826f66"></path><path d="M0 455L16.7 446C33.3 437 66.7 419 100 417.3C133.3 415.7 166.7 430.3 200 436.8C233.3 443.3 266.7 441.7 300 437.3C333.3 433 366.7 426 400 426.8C433.3 427.7 466.7 436.3 500 443.2C533.3 450 566.7 455 600 450.2C633.3 445.3 666.7 430.7 700 425.5C733.3 420.3 766.7 424.7 800 426.8C833.3 429 866.7 429 883.3 429L900 429L900 601L883.3 601C866.7 601 833.3 601 800 601C766.7 601 733.3 601 700 601C666.7 601 633.3 601 600 601C566.7 601 533.3 601 500 601C466.7 601 433.3 601 400 601C366.7 601 333.3 601 300 601C266.7 601 233.3 601 200 601C166.7 601 133.3 601 100 601C66.7 601 33.3 601 16.7 601L0 601Z" fill="#604a4f"></path><path d="M0 520L16.7 509C33.3 498 66.7 476 100 473.8C133.3 471.7 166.7 489.3 200 490C233.3 490.7 266.7 474.3 300 466C333.3 457.7 366.7 457.3 400 460.2C433.3 463 466.7 469 500 477C533.3 485 566.7 495 600 502.7C633.3 510.3 666.7 515.7 700 509.8C733.3 504 766.7 487 800 479C833.3 471 866.7 472 883.3 472.5L900 473L900 601L883.3 601C866.7 601 833.3 601 800 601C766.7 601 733.3 601 700 601C666.7 601 633.3 601 600 601C566.7 601 533.3 601 500 601C466.7 601 433.3 601 400 601C366.7 601 333.3 601 300 601C266.7 601 233.3 601 200 601C166.7 601 133.3 601 100 601C66.7 601 33.3 601 16.7 601L0 601Z" fill="#342c3a"></path><path d="M0 513L16.7 519C33.3 525 66.7 537 100 538.7C133.3 540.3 166.7 531.7 200 531.3C233.3 531 266.7 539 300 544.3C333.3 549.7 366.7 552.3 400 548.8C433.3 545.3 466.7 535.7 500 536.2C533.3 536.7 566.7 547.3 600 553.8C633.3 560.3 666.7 562.7 700 564.3C733.3 566 766.7 567 800 560.7C833.3 554.3 866.7 540.7 883.3 533.8L900 527L900 601L883.3 601C866.7 601 833.3 601 800 601C766.7 601 733.3 601 700 601C666.7 601 633.3 601 600 601C566.7 601 533.3 601 500 601C466.7 601 433.3 601 400 601C366.7 601 333.3 601 300 601C266.7 601 233.3 601 200 601C166.7 601 133.3 601 100 601C66.7 601 33.3 601 16.7 601L0 601Z" fill="#001220"></path></svg>